<svg xmlns="http://www.w3.org/2000/svg" xmlns:xlink="http://www.w3.org/1999/xlink" viewBox="0 0 1366 761.46"><defs><style>.cls-1{fill:url(#linear-gradient);}</style><linearGradient id="linear-gradient" x1="78.92" y1="644.3" x2="1059.85" y2="195.23" gradientUnits="userSpaceOnUse"><stop offset="0" stop-color="#0054d4"/><stop offset="1" stop-color="#6ac2ff"/></linearGradient></defs><g id="Layer_2" data-name="Layer 2"><g id="Layer_1-2" data-name="Layer 1"><path class="cls-1" d="M147.66,711.67c40.8,0,81.47,9.25,117.71,28.15,4.53,2.37,9.23,4.94,14.34,5s10-2.51,14.59-4.86c72.86-37.1,163.44-37.14,236.34-.12,4.61,2.33,9.39,4.87,14.55,4.85s9.76-2.52,14.28-4.82c72.8-37,163.28-37,236.08,0,4.51,2.3,9.19,4.78,14.25,4.77s9.57-2.42,14-4.66c46.61-15.53,86.11-30.11,136.66-26.67s92.27,21.8,135.55,46.47a10.14,10.14,0,0,0,4.64,1.72c2,0,3.8-1.06,5.48-2.11,45.08-28.1,96.58-47.68,150.21-47.68A262.72,262.72,0,0,1,1366,735.5V320.33S1325.5,145.5,1032.5,145.5,683,0,683,0H0V756.87A262.45,262.45,0,0,1,147.66,711.67Z"/></g></g></svg>